<svg id="Group_68" data-name="Group 68" xmlns="http://www.w3.org/2000/svg" xmlns:xlink="http://www.w3.org/1999/xlink" width="18.229" height="29.176" viewBox="0 0 18.229 29.176">
  <defs>
    <clipPath id="clip-path">
      <rect id="Rectangle_65" data-name="Rectangle 65" width="18.229" height="29.176" fill="#222662"/>
    </clipPath>
  </defs>
  <g id="Group_30" data-name="Group 30" clip-path="url(#clip-path)">
    <path id="Path_35" data-name="Path 35" d="M16.1,285.524a1.383,1.383,0,0,0-.414-.284q-3.623-2.3-7.25-4.592a.876.876,0,0,1,0-1.635q1.091-.694,2.185-1.383a.858.858,0,1,1,.916,1.441c-.374.241-.75.479-1.125.719-.013.008-.017.032-.034.068l2.368,1.5q1.717,1.087,3.434,2.173c.113.072.2.132.352.037q2.887-1.842,5.782-3.669a1.089,1.089,0,0,0,.091-.078c-.424-.27-.841-.525-1.248-.8a.85.85,0,0,1-.009-1.449.781.781,0,0,1,.863-.02c.838.517,1.676,1.036,2.5,1.583a.843.843,0,0,1-.079,1.446c-.907.585-1.823,1.158-2.735,1.736l-4.636,2.931c-.148.094-.3.182-.45.273Z" transform="translate(-7.276 -256.348)" fill="#222662"/>
    <path id="Path_36" data-name="Path 36" d="M18.055,7.332a8.9,8.9,0,0,0-6.7-7.039C10.9.159,10.425.1,9.958,0H8.195c-.036.081-.113.054-.173.062a9.826,9.826,0,0,0-3.33,1.079A8.891,8.891,0,0,0,.257,11.086a14.182,14.182,0,0,0,2.326,4.841q2.888,4.038,5.723,8.113a.876.876,0,0,0,1.6,0c1.762-2.517,3.5-5.052,5.319-7.528a18.117,18.117,0,0,0,2.094-3.543,9.164,9.164,0,0,0,.738-5.638M15,13.744c-.827,1.4-1.839,2.67-2.775,3.994q-1.5,2.114-2.964,4.247c-.137.2-.192.184-.321,0-1.586-2.317-3.224-4.6-4.859-6.879A13.727,13.727,0,0,1,2.1,11.343a7.289,7.289,0,0,1,6.282-9.6,7.468,7.468,0,0,1,7.805,5.118,6.785,6.785,0,0,1,.31,1.977A9.514,9.514,0,0,1,15,13.744" transform="translate(0.001)" fill="#222662"/>
    <path id="Path_37" data-name="Path 37" d="M61.743,58.008a4.781,4.781,0,1,0,4.785,4.773,4.792,4.792,0,0,0-4.785-4.773m.006,7.851a3.07,3.07,0,1,1,3.072-3.048,3.071,3.071,0,0,1-3.072,3.048" transform="translate(-52.648 -53.598)" fill="#222662"/>
  </g>
</svg>
