<svg xmlns="http://www.w3.org/2000/svg" xmlns:xlink="http://www.w3.org/1999/xlink" width="35.926" height="35.926" viewBox="0 0 35.926 35.926">
  <defs>
    <clipPath id="clip-path">
      <rect id="Rectangle_66" data-name="Rectangle 66" width="25.39" height="25.416" fill="#222662"/>
    </clipPath>
  </defs>
  <g id="Group_69" data-name="Group 69" transform="translate(17.972) rotate(45)">
    <g id="Group_32" data-name="Group 32" clip-path="url(#clip-path)">
      <path id="Path_38" data-name="Path 38" d="M199.581,0a1.244,1.244,0,0,0,.512.141,13.441,13.441,0,0,1,6.23,3.21,13.612,13.612,0,0,1,3.8,5.723,13.158,13.158,0,0,1,.539,2.111.692.692,0,0,1-.541.842.7.7,0,0,1-.853-.528c-.11-.4-.178-.807-.286-1.2a12.092,12.092,0,0,0-4.539-6.624,11.85,11.85,0,0,0-4.948-2.178c-.105-.02-.212-.039-.315-.068a.719.719,0,0,1-.542-.663.7.7,0,0,1,.473-.71c.03-.012.064-.011.076-.05Z" transform="translate(-185.283)" fill="#222662"/>
      <path id="Path_39" data-name="Path 39" d="M196.337,68.536a7.517,7.517,0,0,1,2.05.6,8.272,8.272,0,0,1,4.855,6.148.734.734,0,0,1-.541.9.721.721,0,0,1-.863-.556,8.351,8.351,0,0,0-.511-1.653,6.85,6.85,0,0,0-5.077-3.986.713.713,0,0,1-.635-.657.7.7,0,0,1,.492-.745,1.845,1.845,0,0,1,.231-.046" transform="translate(-182.463 -63.929)" fill="#222662"/>
      <path id="Path_40" data-name="Path 40" d="M23.256,39.113c-1.107-1.218-2.276-2.378-3.483-3.5a2.155,2.155,0,0,0-1.673-.551,2.69,2.69,0,0,0-1.726.883q-.75.741-1.493,1.49c-.094.1-.164.129-.293.053-.321-.188-.661-.34-.973-.544a17.394,17.394,0,0,1-3.153-2.674,14.046,14.046,0,0,1-2.428-3.307.263.263,0,0,1,.072-.372,23.039,23.039,0,0,0,1.789-1.823,2.313,2.313,0,0,0,0-3.087c-1.04-1.168-2.154-2.268-3.3-3.331A2.348,2.348,0,0,0,3.177,22.3a28.432,28.432,0,0,0-2.123,2.121A3.738,3.738,0,0,0,.091,26.37c-.023.125,0,.264-.091.372v1.142c.078.039.051.115.058.175a11.984,11.984,0,0,0,.759,2.892,23.973,23.973,0,0,0,5,7.717,24.756,24.756,0,0,0,7.2,5.366,13.278,13.278,0,0,0,4.845,1.5A4.092,4.092,0,0,0,21.2,44.411c.444-.433.867-.887,1.3-1.33a11.636,11.636,0,0,0,.8-.849,2.375,2.375,0,0,0-.045-3.119m-1.124,2.273c-.062.077-.128.152-.2.223-.544.555-1.107,1.091-1.633,1.665a2.713,2.713,0,0,1-2.39.823,11.788,11.788,0,0,1-4.159-1.308,24.315,24.315,0,0,1-10.068-9.3,16.068,16.068,0,0,1-2.072-4.908,5.61,5.61,0,0,1-.134-1.306,2.69,2.69,0,0,1,.9-2.168c.546-.518,1.065-1.064,1.6-1.593a1.072,1.072,0,0,1,1.757,0q1.4,1.4,2.805,2.81a3.194,3.194,0,0,1,.218.238A.924.924,0,0,1,8.742,27.9c-.565.626-1.176,1.209-1.79,1.787a1.2,1.2,0,0,0-.322,1.679,14.317,14.317,0,0,0,2.627,3.737,17.805,17.805,0,0,0,3.975,3.3c.333.2.681.374,1.027.549a1.086,1.086,0,0,0,1.361-.226c.572-.562,1.136-1.133,1.7-1.7.082-.082.163-.165.252-.239a.947.947,0,0,1,1.4.037c.6.582,1.186,1.177,1.775,1.769.455.457.92.906,1.357,1.38a.978.978,0,0,1,.028,1.408" transform="translate(0 -20.139)" fill="#222662"/>
    </g>
  </g>
</svg>
