<svg xmlns="http://www.w3.org/2000/svg" xmlns:xlink="http://www.w3.org/1999/xlink" width="30.197" height="55.973" viewBox="0 0 30.197 55.973">
  <defs>
    <clipPath id="clip-path">
      <rect id="Rectangle_240" data-name="Rectangle 240" width="30.197" height="55.973" fill="#3b5998"/>
    </clipPath>
  </defs>
  <g id="Group_348" data-name="Group 348" transform="translate(0)">
    <g id="Group_347" data-name="Group 347" transform="translate(0)" clip-path="url(#clip-path)">
      <path id="Path_280" data-name="Path 280" d="M20.243,43.4q0,5.232,0,10.463c0,.319-.008.638-.03.956a1.041,1.041,0,0,1-.951,1.071,6.184,6.184,0,0,1-.882.072q-4.1.008-8.206,0c-1.4,0-1.744-.34-1.745-1.729,0-7.272-.014-14.543.018-21.815,0-.727-.218-.86-.878-.846-1.96.041-3.921.021-5.881.012C.352,31.586.015,31.261.009,29.94q-.018-4.069,0-8.138c.007-1.311.356-1.633,1.693-1.635,2.051,0,4.1-.013,6.155.008.445,0,.583-.121.579-.573-.018-2.165-.062-4.333.016-6.5.143-3.98,1.364-7.523,4.524-10.163A12.606,12.606,0,0,1,20.715.066c2.708-.114,5.424-.049,8.136-.043.946,0,1.33.39,1.335,1.339q.02,4,0,8c0,1.022-.362,1.392-1.413,1.417-1.846.044-3.692.045-5.538.073-2.07.031-2.938.841-2.985,2.885-.044,1.914,0,3.829-.025,5.744-.007.487.2.551.61.549,2.416-.014,4.833-.01,7.249-.006,1.48,0,1.828.346,1.829,1.8q0,4.069,0,8.138c0,1.214-.323,1.54-1.545,1.545-2.485.011-4.97.021-7.454-.007-.546-.006-.686.155-.683.688.022,3.738.012,7.477.012,11.215" transform="translate(0 0)" fill="#3b5998"/>
    </g>
  </g>
</svg>
