<svg width="53" height="53" viewBox="0 0 53 53" fill="none" xmlns="http://www.w3.org/2000/svg">
<path d="M43.1078 12.1524C43.1078 10.4199 41.7036 9.02095 39.9776 9.02095C38.2514 9.02095 36.846 10.4199 36.846 12.1524C36.846 13.8785 38.2514 15.2775 39.9776 15.2775C41.7036 15.2775 43.1078 13.8785 43.1078 12.1524Z" fill="url(#paint0_linear_39_11)"/>
<path d="M47.2788 36.5962C47.1628 39.1378 46.7378 40.5186 46.3848 41.4357C45.9108 42.6518 45.3453 43.5213 44.4282 44.4333C43.5213 45.3453 42.6518 45.9095 41.4357 46.3784C40.5186 46.7365 39.1325 47.1628 36.5911 47.284C33.8435 47.405 33.0293 47.4308 26.0618 47.4308C19.1007 47.4308 18.28 47.405 15.5324 47.284C12.991 47.1628 11.6114 46.7365 10.6942 46.3784C9.47173 45.9095 8.60871 45.3453 7.6967 44.4333C6.77822 43.5213 6.21276 42.6518 5.74516 41.4357C5.39215 40.5186 4.96068 39.1378 4.85112 36.5962C4.71722 33.8486 4.69268 33.0216 4.69268 26.0682C4.69268 19.1007 4.71722 18.28 4.85112 15.5324C4.96068 12.991 5.39215 11.6114 5.74516 10.6864C6.21276 9.47174 6.77822 8.60736 7.6967 7.69535C8.60871 6.7847 9.47173 6.21914 10.6942 5.74516C11.6114 5.38577 12.991 4.9658 15.5324 4.84475C18.28 4.7236 19.1007 4.69268 26.0618 4.69268C33.0293 4.69268 33.8435 4.7236 36.5911 4.84475C39.1325 4.9658 40.5186 5.38577 41.4357 5.74516C42.6518 6.21914 43.5213 6.7847 44.4282 7.69535C45.3453 8.60736 45.9108 9.47174 46.3848 10.6864C46.7378 11.6114 47.1628 12.991 47.2788 15.5324C47.4063 18.28 47.4372 19.1007 47.4372 26.0682C47.4372 33.0216 47.4063 33.8486 47.2788 36.5962ZM51.9716 15.3186C51.844 12.5414 51.406 10.6439 50.7555 8.99129C50.0934 7.27674 49.2059 5.82371 47.7528 4.37068C46.3063 2.92412 44.8533 2.03656 43.1387 1.36676C41.4796 0.722653 39.5885 0.279497 36.81 0.158443C34.0315 0.024444 33.144 0 26.0618 0C18.986 0 18.092 0.024444 15.3135 0.158443C12.5414 0.279497 10.6516 0.722653 8.98482 1.36676C7.27673 2.03656 5.82371 2.92412 4.37715 4.37068C2.92412 5.82371 2.03656 7.27674 1.36801 8.99129C0.723906 10.6439 0.285968 12.5414 0.151969 15.3186C0.0309155 18.0972 0 18.986 0 26.0682C0 33.144 0.0309155 34.0315 0.151969 36.81C0.285968 39.5822 0.723906 41.4783 1.36801 43.1387C2.03656 44.8468 2.92412 46.3063 4.37715 47.7528C5.82371 49.1994 7.27673 50.0934 8.98482 50.762C10.6516 51.406 12.5414 51.844 15.3135 51.9716C18.092 52.0991 18.986 52.13 26.0618 52.13C33.144 52.13 34.0315 52.0991 36.81 51.9716C39.5885 51.844 41.4796 51.406 43.1387 50.762C44.8533 50.0934 46.3063 49.1994 47.7528 47.7528C49.2059 46.3063 50.0934 44.8468 50.7555 43.1387C51.406 41.4783 51.844 39.5822 51.9716 36.81C52.0991 34.0315 52.13 33.144 52.13 26.0682C52.13 18.986 52.0991 18.0972 51.9716 15.3186Z" fill="url(#paint1_linear_39_11)"/>
<path d="M26.0618 34.749C21.266 34.749 17.3745 30.8639 17.3745 26.0681C17.3745 21.2646 21.266 17.3745 26.0618 17.3745C30.8589 17.3745 34.7555 21.2646 34.7555 26.0681C34.7555 30.8639 30.8589 34.749 26.0618 34.749ZM26.0618 12.6754C18.6691 12.6754 12.6818 18.6755 12.6818 26.0681C12.6818 33.4544 18.6691 39.4482 26.0618 39.4482C33.4544 39.4482 39.4482 33.4544 39.4482 26.0681C39.4482 18.6755 33.4544 12.6754 26.0618 12.6754Z" fill="url(#paint2_linear_39_11)"/>
<defs>
<linearGradient id="paint0_linear_39_11" x1="-302.835" y1="-302.568" x2="91.4228" y2="91.3591" gradientUnits="userSpaceOnUse">
<stop stop-color="#FFD521"/>
<stop offset="0.05" stop-color="#FFD521"/>
<stop offset="0.501119" stop-color="#F50000"/>
<stop offset="0.95" stop-color="#B900B4"/>
<stop offset="0.950079" stop-color="#B900B4"/>
<stop offset="1" stop-color="#B900B4"/>
</linearGradient>
<linearGradient id="paint1_linear_39_11" x1="0.470205" y1="0.47407" x2="47.8269" y2="47.8308" gradientUnits="userSpaceOnUse">
<stop stop-color="#FFD521"/>
<stop offset="0.05" stop-color="#FFD521"/>
<stop offset="0.501119" stop-color="#F50000"/>
<stop offset="0.95" stop-color="#B900B4"/>
<stop offset="0.950079" stop-color="#B900B4"/>
<stop offset="1" stop-color="#B900B4"/>
</linearGradient>
<linearGradient id="paint2_linear_39_11" x1="0.482479" y1="51.6572" x2="47.8278" y2="4.31183" gradientUnits="userSpaceOnUse">
<stop stop-color="#FFD521"/>
<stop offset="0.05" stop-color="#FFD521"/>
<stop offset="0.501119" stop-color="#F50000"/>
<stop offset="0.95" stop-color="#B900B4"/>
<stop offset="0.950079" stop-color="#B900B4"/>
<stop offset="1" stop-color="#B900B4"/>
</linearGradient>
</defs>
</svg>
