<svg xmlns="http://www.w3.org/2000/svg" xmlns:xlink="http://www.w3.org/1999/xlink" width="45.777" height="52.13" viewBox="0 0 45.777 52.13">
  <defs>
    <clipPath id="clip-path">
      <rect id="Rectangle_251" data-name="Rectangle 251" width="45.777" height="52.13" fill="#23181e"/>
    </clipPath>
  </defs>
  <g id="Group_371" data-name="Group 371" transform="translate(0)">
    <g id="Group_370" data-name="Group 370" transform="translate(0)" clip-path="url(#clip-path)">
      <path id="Path_384" data-name="Path 384" d="M15.042,52.13a6.008,6.008,0,0,0-1.57-.285A16.082,16.082,0,0,1,11.5,20.566a17.421,17.421,0,0,1,6.645-.619c.46.046.65.173.642.7-.036,2.495-.022,4.991-.01,7.486,0,.4-.06.517-.508.4A7.688,7.688,0,1,0,23.9,37.469a10.625,10.625,0,0,0,.146-1.977q.011-17.366.02-34.732c0-.855-.089-.747.77-.749,2.36,0,4.719.01,7.079-.011.472,0,.648.067.677.614A13.1,13.1,0,0,0,45.212,13.022c.449.016.566.142.562.584q-.032,3.667,0,7.333c.005.5-.162.577-.609.563a21.464,21.464,0,0,1-12.181-4.161c-.107-.077-.219-.149-.414-.281,0,.265,0,.458,0,.651q.026,8.989.053,17.977a15.681,15.681,0,0,1-2.577,8.959,16.136,16.136,0,0,1-12.2,7.376c-.123.014-.279-.054-.362.106h-.611a2.1,2.1,0,0,0-1.019,0Z" transform="translate(0 0)" fill="#23181e"/>
    </g>
  </g>
</svg>
