<svg id="Group_346" data-name="Group 346" xmlns="http://www.w3.org/2000/svg" xmlns:xlink="http://www.w3.org/1999/xlink" width="56.448" height="46.089" viewBox="0 0 56.448 46.089">
  <defs>
    <clipPath id="clip-path">
      <rect id="Rectangle_239" data-name="Rectangle 239" width="56.448" height="46.089" fill="#03a9f4"/>
    </clipPath>
  </defs>
  <g id="Group_345" data-name="Group 345" transform="translate(0)" clip-path="url(#clip-path)">
    <path id="Path_279" data-name="Path 279" d="M16.938,36.074a12.3,12.3,0,0,1-3.4-.613,11.656,11.656,0,0,1-7.226-6.942c-.21-.523-.176-.553.4-.475a10.557,10.557,0,0,0,4.334-.273,12.082,12.082,0,0,1-6.471-4.185,11.43,11.43,0,0,1-2.519-7.353,11.718,11.718,0,0,0,5.012,1.383c.007-.2-.142-.242-.234-.311A11.42,11.42,0,0,1,2.246,9.558a11.4,11.4,0,0,1,1.3-7.122c.265-.5.392-.077.513.067A33.03,33.03,0,0,0,9.474,7.64,32.466,32.466,0,0,0,25.4,14.061c.6.072,1.215.1,1.817.187.431.063.471-.069.407-.468a11.392,11.392,0,0,1,2.337-9.375A11.255,11.255,0,0,1,40.869.142a11.036,11.036,0,0,1,6.359,3.217.726.726,0,0,0,.782.2,23.523,23.523,0,0,0,6.344-2.4c.112-.063.229-.12.347-.171.025-.011.067.014.158.037a12.264,12.264,0,0,1-4.766,6.2c.523-.085,1.049-.156,1.568-.26.542-.109,1.082-.234,1.615-.381.515-.142,1.024-.309,1.529-.484s1.026-.383,1.642-.614a21.451,21.451,0,0,1-2.8,3.459,19.664,19.664,0,0,1-2.593,2.247.777.777,0,0,0-.355.74,33.527,33.527,0,0,1-5.812,19.864,31.227,31.227,0,0,1-14.249,11.8,32.8,32.8,0,0,1-10.028,2.377,33.783,33.783,0,0,1-12.277-1.2A30.178,30.178,0,0,1,0,40.946a25.219,25.219,0,0,0,8.835-.781,23.34,23.34,0,0,0,8.1-4.09" transform="translate(0 0)" fill="#03a9f4"/>
  </g>
</svg>
