<svg xmlns="http://www.w3.org/2000/svg" xmlns:xlink="http://www.w3.org/1999/xlink" width="56.449" height="56.497" viewBox="0 0 56.449 56.497">
  <defs>
    <clipPath id="clip-path">
      <rect id="Rectangle_241" data-name="Rectangle 241" width="56.449" height="56.497" transform="translate(0)" fill="#0077b7"/>
    </clipPath>
  </defs>
  <g id="Group_349" data-name="Group 349" transform="translate(0)" clip-path="url(#clip-path)">
    <path id="Path_281" data-name="Path 281" d="M135.353,159.463q0-18.447.006-36.9c0-.832,0-.832.852-.832,3.27,0,6.539.009,9.809-.01.447,0,.6.1.585.569-.033,1.341-.014,2.684-.009,4.026,0,.174-.058.362.055.523.163.026.186-.11.236-.193a11.745,11.745,0,0,1,8.7-5.665,16.964,16.964,0,0,1,8.417.776c3.592,1.29,5.67,3.967,6.748,7.528a27.934,27.934,0,0,1,1.071,8c.037,7.39.02,14.78.025,22.17H160.16c-.3-.241-.266-.587-.268-.914-.01-1.673,0-3.346,0-5.019q0-6.646,0-13.292a21.319,21.319,0,0,0-.356-4.057,5.721,5.721,0,0,0-2.124-3.859,5.652,5.652,0,0,0-2.9-.924,7.729,7.729,0,0,0-2.885.344,5.421,5.421,0,0,0-3.71,4.028,16.041,16.041,0,0,0-.59,4.523c-.021,6.012-.005,12.023-.013,18.035,0,.392.1.822-.268,1.134Z" transform="translate(-115.398 -102.967)" fill="#0077b7"/>
    <path id="Path_282" data-name="Path 282" d="M5.983,164.978c.015-.256.042-.511.042-.767q0-18.093,0-36.186c0-.9-.067-.768.757-.769,3.436,0,6.872.011,10.307-.015.54,0,.663.147.662.672q-.023,18.148-.01,36.3c0,.256.023.512.035.768Z" transform="translate(-5.101 -108.481)" fill="#0077b7"/>
    <path id="Path_283" data-name="Path 283" d="M0,5.631A5.063,5.063,0,0,0,.445,4.359,6.831,6.831,0,0,1,8.18.145,6.817,6.817,0,0,1,7.38,13.6,6.811,6.811,0,0,1,.212,8.484C.165,8.3.2,8.076,0,7.948Z" transform="translate(0 0)" fill="#0077b7"/>
  </g>
</svg>
