<svg xmlns="http://www.w3.org/2000/svg" width="52.085" height="80.269" viewBox="0 0 52.085 80.269">
  <path id="_" data-name="?" d="M858.519,876.871h14.688c.325-6.125,4.444-10.081,10.677-10.081,6.179,0,10.3,3.74,10.3,8.889s-2.114,7.8-9.105,11.978c-7.479,4.39-10.46,9.268-9.756,17.778l.108,3.143h14.363v-2.872c0-5.311,2.005-7.967,9.214-12.141,7.642-4.5,11.6-10.189,11.6-18.374,0-12.357-10.244-20.975-25.745-20.975C868.22,854.216,858.79,863.538,858.519,876.871ZM882.8,934.485a8.515,8.515,0,1,0-8.835-8.509A8.646,8.646,0,0,0,882.8,934.485Z" transform="translate(-858.519 -854.216)" fill="#dedfe1"/>
</svg>
